<?xml version="1.0" standalone="no"?>
<!DOCTYPE svg PUBLIC "-//W3C//DTD SVG 20010904//EN"
 "http://www.w3.org/TR/2001/REC-SVG-20010904/DTD/svg10.dtd">
<svg version="1.0" xmlns="http://www.w3.org/2000/svg"
 width="700.000000pt" height="700.000000pt" viewBox="0 0 700.000000 700.000000"
 preserveAspectRatio="xMidYMid meet">
<metadata>
Created by potrace 1.14, written by Peter Selinger 2001-2017
</metadata>
<g transform="translate(0.000000,700.000000) scale(0.100000,-0.100000)"
fill="#000000" stroke="none">
<path d="M2268 6743 c-11 -13 -17 -47 -20 -118 -3 -75 -11 -120 -32 -180 -119
-340 -315 -750 -564 -1175 -357 -612 -951 -1469 -1381 -1992 -83 -101 -121
-155 -121 -172 0 -31 37 -73 71 -81 24 -6 45 10 190 148 304 288 756 790 1034
1149 l60 78 3 -873 c4 -1078 -9 -1668 -58 -2677 -6 -113 -10 -274 -11 -359 -1
-137 1 -157 19 -180 10 -14 30 -32 43 -38 30 -16 131 -17 201 -2 70 15 207 79
237 113 l25 26 -13 508 c-7 279 -15 1303 -18 2275 -6 1752 -6 1768 14 1795
148 201 434 639 620 950 74 125 147 239 161 255 40 42 88 53 180 39 42 -7 85
-12 95 -12 30 0 67 45 67 83 0 39 -23 64 -90 97 -54 27 -356 195 -526 291
-125 72 -160 81 -186 52z"/>
<path d="M5875 5739 c-11 -6 -104 -95 -208 -198 l-187 -186 -1233 -3 c-1276
-3 -1425 0 -1602 38 -49 10 -91 18 -92 17 -3 -4 54 -297 59 -303 3 -3 30 0 59
7 42 10 483 14 1904 18 1024 3 1856 10 1864 15 27 17 43 75 31 111 -18 54
-360 373 -499 466 -48 31 -65 34 -96 18z"/>
<path d="M6161 1412 c-20 -21 -80 -87 -133 -148 -53 -60 -124 -136 -158 -169
l-61 -60 -1542 -3 c-1597 -3 -1744 0 -1927 38 -52 10 -95 18 -97 17 -1 -2 12
-71 29 -155 l32 -153 40 7 c23 4 68 11 101 17 38 6 843 11 2201 14 2096 4
2142 4 2159 23 10 11 20 39 22 63 7 57 -4 70 -272 305 -300 264 -324 277 -394
204z"/>
</g>
</svg>
