<svg width="512" height="512" viewBox="0 0 512 512" fill="none" xmlns="http://www.w3.org/2000/svg">
<rect width="512" height="512" fill="#1E1E1E"/>
<rect width="512" height="512" fill="white"/>
<path d="M116.08 493.16C108.66 493.16 104.95 490.157 104.95 484.15C104.95 482.383 105.127 475.14 105.48 462.42C106.187 449.7 106.893 433.623 107.6 414.19C108.66 394.757 109.367 373.733 109.72 351.12C110.427 328.507 110.78 306.6 110.78 285.4V189.47C95.5867 208.903 80.04 227.453 64.14 245.12C48.24 262.433 32.87 277.803 18.03 291.23C13.0833 290.523 10.61 287.873 10.61 283.28C24.0367 267.733 37.9933 249.89 52.48 229.75C67.32 209.61 81.8067 188.587 95.94 166.68C110.427 144.773 123.323 123.22 134.63 102.02C145.937 80.82 154.77 61.21 161.13 43.19C163.957 36.1233 165.017 30.47 164.31 26.23C163.957 21.6367 164.663 18.9866 166.43 18.28C167.843 17.22 169.61 17.22 171.73 18.28C175.263 20.0466 180.21 22.8733 186.57 26.76C193.283 30.2933 199.997 34.0033 206.71 37.89C213.423 41.4233 218.37 44.0733 221.55 45.84C224.377 47.2533 225.26 49.7267 224.2 53.26C222.787 56.44 220.313 57.6767 216.78 56.97C216.427 56.97 215.72 56.7933 214.66 56.44C211.48 55.7333 208.3 55.5567 205.12 55.91C202.293 55.91 199.467 58.2067 196.64 62.8C180.387 91.0667 161.837 119.863 140.99 149.19V285.93C140.99 307.483 141.167 329.39 141.52 351.65C141.873 373.557 142.05 393.873 142.05 412.6C142.403 431.327 142.757 446.697 143.11 458.71C143.463 471.077 143.64 478.32 143.64 480.44C143.64 483.267 140.46 486.093 134.1 488.92C128.093 491.747 122.087 493.16 116.08 493.16ZM168.55 455L163.78 432.21C172.613 434.33 180.21 435.567 186.57 435.92C192.93 436.273 196.11 436.45 196.11 436.45H421.89C424.363 436.45 426.307 435.567 427.72 433.8C428.78 432.74 430.9 430.443 434.08 426.91C437.613 423.377 440.97 419.843 444.15 416.31C447.33 412.423 449.45 409.773 450.51 408.36C453.69 405.18 457.047 405.003 460.58 407.83C463.407 409.597 467.117 412.6 471.71 416.84C476.657 421.08 481.427 425.32 486.02 429.56C490.967 433.447 494.5 436.627 496.62 439.1C499.447 441.573 500.33 444.4 499.27 447.58C498.563 450.76 496.797 452.35 493.97 452.35H196.64C196.64 452.35 193.637 452.527 187.63 452.88C181.977 452.88 175.617 453.587 168.55 455ZM190.81 139.12L186.57 116.33C195.403 118.45 203 119.687 209.36 120.04C215.72 120.393 218.9 120.57 218.9 120.57H397.51C399.63 120.57 401.397 119.863 402.81 118.45L427.19 94.07C430.37 90.89 433.55 90.7133 436.73 93.54C441.677 97.0733 447.683 102.02 454.75 108.38C461.817 114.74 467.117 119.687 470.65 123.22C473.477 126.047 474.36 129.05 473.3 132.23C472.593 135.057 470.65 136.47 467.47 136.47H218.9C218.9 136.47 215.897 136.647 209.89 137C204.237 137 197.877 137.707 190.81 139.12Z" fill="black"/>
</svg>
